<?xml version="1.0" standalone="no"?>
<!DOCTYPE svg PUBLIC "-//W3C//DTD SVG 20010904//EN"
 "http://www.w3.org/TR/2001/REC-SVG-20010904/DTD/svg10.dtd">
<svg version="1.0" xmlns="http://www.w3.org/2000/svg"
 width="700.000000pt" height="700.000000pt" viewBox="0 0 700.000000 700.000000"
 preserveAspectRatio="xMidYMid meet">
<metadata>
Created by potrace 1.11, written by Peter Selinger 2001-2013
</metadata>
<g transform="translate(0.000000,700.000000) scale(0.100000,-0.100000)"
fill="#000000" stroke="none">
<path d="M5282 6230 c-64 -15 -83 -43 -149 -229 -95 -266 -450 -1249 -460
-1271 -3 -8 -7 -17 -7 -20 -2 -7 -46 -131 -56 -155 -16 -40 -42 -111 -57 -155
-17 -51 -64 -173 -69 -179 -4 -5 -53 -8 -229 -16 -88 -3 -187 -8 -220 -10 -33
-2 -127 -6 -210 -10 -82 -3 -179 -8 -215 -10 -36 -2 -135 -6 -220 -10 -85 -3
-177 -8 -205 -10 -27 -2 -120 -7 -205 -10 -85 -3 -193 -8 -240 -10 -169 -9
-337 -17 -420 -20 -47 -2 -148 -7 -225 -11 -253 -12 -495 -7 -524 11 -4 2 -22
6 -42 9 -20 3 -74 17 -120 32 -323 102 -595 320 -774 622 -52 88 -84 112 -148
112 -41 0 -97 -35 -115 -72 -24 -52 -18 -92 29 -174 111 -195 286 -389 469
-519 127 -90 319 -186 442 -221 29 -8 65 -20 80 -26 l28 -10 -69 -74 c-174
-186 -294 -436 -345 -719 -3 -16 -8 -39 -10 -50 -2 -11 -7 -54 -10 -95 -4 -41
-9 -82 -12 -90 -2 -8 -87 -51 -187 -94 -408 -177 -425 -185 -450 -218 -14 -19
-179 -467 -272 -743 -13 -38 -33 -96 -45 -129 -28 -78 -19 -137 27 -178 10 -8
58 -39 108 -67 101 -58 146 -65 200 -31 37 23 48 44 98 185 19 55 66 188 104
295 l70 195 39 6 c21 4 80 10 129 14 50 3 106 8 125 9 19 2 73 7 120 11 46 3
88 8 91 11 4 2 10 1 13 -4 2 -4 -33 -59 -80 -122 -46 -63 -86 -129 -90 -146
-3 -20 12 -128 40 -280 25 -137 48 -262 50 -279 3 -16 8 -41 11 -55 3 -14 14
-74 25 -135 11 -60 22 -121 25 -135 3 -14 7 -37 10 -52 13 -70 46 -110 105
-125 58 -16 230 -9 266 10 65 34 81 91 59 203 -29 154 -34 179 -39 214 -3 19
-8 46 -11 60 -3 14 -10 52 -16 85 -5 33 -17 95 -26 138 -8 43 -13 80 -12 82 4
3 446 310 585 405 364 250 555 385 586 414 54 51 140 156 170 207 l27 47 43
-8 c24 -5 57 -10 73 -13 17 -3 98 -17 180 -31 83 -15 164 -29 180 -31 17 -3
53 -10 80 -15 28 -5 64 -12 80 -15 17 -2 41 -7 55 -9 14 -3 41 -8 60 -10 19
-3 46 -8 60 -11 14 -3 95 -17 180 -31 85 -14 157 -27 160 -29 3 -1 32 -6 65
-10 32 -3 62 -8 65 -10 3 -1 27 -6 54 -9 27 -4 52 -9 55 -10 3 -2 26 -7 51
-10 25 -3 70 -10 100 -16 171 -29 288 -49 310 -52 19 -2 47 -33 117 -128 111
-150 111 -150 594 -810 211 -289 388 -530 394 -536 19 -19 55 -35 90 -38 42
-5 209 77 238 116 10 14 21 45 24 69 5 40 -2 58 -65 179 -80 156 -220 428
-370 720 -58 113 -109 211 -115 218 -19 24 3 25 110 2 60 -12 117 -24 128 -26
11 -2 67 -13 124 -25 110 -22 146 -29 171 -33 15 -3 16 -6 10 -178 -4 -88 15
-119 105 -175 52 -32 80 -43 110 -43 41 0 86 23 109 56 21 30 214 507 216 534
4 52 -1 70 -31 104 -17 20 -45 40 -62 45 -33 10 -123 41 -587 201 -146 50
-285 98 -310 106 -25 8 -52 18 -60 21 -8 3 -21 7 -29 9 -7 1 -17 6 -21 11 -5
4 7 78 26 163 19 85 37 169 40 185 3 17 10 48 16 70 5 22 12 49 13 60 2 11 14
72 28 135 14 63 40 180 57 260 17 80 33 152 35 160 8 33 46 210 61 285 l17 80
146 -2 c215 -3 374 37 551 141 139 81 315 256 380 379 11 20 29 54 40 74 42
79 14 156 -70 195 -19 9 -138 58 -265 108 -126 50 -243 98 -260 105 -16 7 -37
15 -46 18 -9 3 -19 21 -23 41 -10 51 -59 143 -107 199 -46 53 -138 117 -206
143 -24 9 -43 19 -44 23 0 3 -2 15 -4 25 -2 11 -6 55 -10 98 -3 43 -7 97 -10
121 -2 23 -7 66 -10 95 -8 85 -62 142 -135 142 -49 0 -81 -23 -165 -114 -43
-48 -80 -86 -84 -86 -3 0 -26 71 -50 158 -52 182 -61 203 -99 231 -35 24 -66
30 -110 21z"/>
</g>
</svg>
